<svg xmlns="http://www.w3.org/2000/svg" version="1.1" xmlns:xlink="http://www.w3.org/1999/xlink" xmlns:svgjs="http://svgjs.dev/svgjs" width="100%" height="100%" viewBox="0 0 1000 600"><rect width="1000" height="600" x="0" y="0" fill="#4d879a"/><g><rect width="333.3333333333333" height="333.3333333333333" rx="13.333333333333334" ry="13.333333333333334" y="234.22540598947944" fill="#a152a4" transform="matrix(0.5896139070373566,0,0,0.5896139070373565,0,63.62848136495765)" x="212.00314331054688"/><path d="M297.66454262640355 326.0966363502289Q313.44478753397243 326.0966363502289 327.00410908417973 332.0872848799541Q340.59265331014177 338.0779334096793 348.77500252147377 349.12410484497747Q356.9865744085605 360.1702762802757 356.9865744085605 374.69394613039L356.9865744085605 374.69394613039Q356.9865744085605 387.96104092304967 349.827018848645 398.1597547614599Q342.6966859644843 408.35846859987015 330.1601580656935 413.8231089660097Q317.65285284265747 419.3169720079041 301.6680492048053 419.3169720079041L301.6680492048053 419.3169720079041Q283.5499902368559 419.3169720079041 271.1595757168389 412.77109263883847L271.1595757168389 412.77109263883847L270.5166768502342 467.9142817880651Q270.5166768502342 471.6840069604288 268.2957534928727 473.7880396147713Q266.1040528112659 475.89207226911384 262.30510496314747 475.89207226911384L262.30510496314747 475.89207226911384Q258.3015983847458 475.89207226911384 256.109897703139 473.7880396147713Q253.88897434577743 471.6840069604288 253.88897434577743 468.11884051834846L253.88897434577743 468.11884051834846Q253.88897434577743 458.44613484352385 254.32731448209879 439.50984095444124L254.32731448209879 439.50984095444124Q254.73643194266538 419.3169720079041 254.73643194266538 407.51101100298223L254.73643194266538 407.51101100298223Q254.73643194266538 385.85700826870715 253.88897434577743 360.60861641659704L253.88897434577743 360.60861641659704Q253.68441561549412 359.1182599531044 253.68441561549412 356.19599237762867L253.68441561549412 356.19599237762867L253.04151674888948 356.60510983819535Q250.93748409454696 357.65712616536655 249.4763503068091 357.65712616536655L249.4763503068091 357.65712616536655Q246.52486005557864 357.65712616536655 244.74227683453844 354.8225266171551Q242.95969361349827 351.9879270689437 242.95969361349827 348.1889792208253L242.95969361349827 348.1889792208253Q242.95969361349827 345.67582910591614 244.6253861315194 344.09780461515925Q246.32030132529533 342.51978012440236 249.68090903709242 340.82486493062646L249.68090903709242 340.82486493062646L253.27529815492753 338.72083227628394L253.27529815492753 335.3602245644869Q253.27529815492753 330.5092603891972 255.37933080927004 328.2006690045714Q257.48336346361253 325.8920776199456 261.89598750258085 325.8920776199456L261.89598750258085 325.8920776199456Q265.66571267494453 325.8920776199456 267.76974532928705 327.14865267740015Q269.87377798362957 328.4052277348547 269.87377798362957 330.5092603891972L269.87377798362957 330.5092603891972L269.87377798362957 330.94760052551857Q283.3454315065726 326.0966363502289 297.66454262640355 326.0966363502289L297.66454262640355 326.0966363502289ZM298.7165589535748 405.4069783486397Q310.6978560130252 405.4069783486397 319.84455352426426 401.4326944459927Q329.020473711258 397.429187867591 334.0467739410762 390.2696323076755Q339.10229684664915 383.11007674776 339.10229684664915 374.0802699395401L339.10229684664915 374.0802699395401Q339.10229684664915 364.3783415889607 333.4330977502263 356.80966856847857Q327.73467597804864 349.24099554799653 318.3834197365264 345.0329302393115Q309.0321634950041 340.82486493062646 297.8691013566869 340.82486493062646L297.8691013566869 340.82486493062646Q286.29692175780303 340.82486493062646 270.10755938966764 348.1889792208253L270.10755938966764 348.1889792208253Q270.5166768502342 362.91720780122284 270.5166768502342 367.5343905704745L270.5166768502342 367.5343905704745Q270.5166768502342 372.18079601548084 270.9257943108008 382.26261915087207L270.9257943108008 382.26261915087207Q271.3641344471222 394.68225634664384 271.1595757168389 398.68576292504554L271.1595757168389 398.68576292504554Q282.93631404600603 405.4069783486397 298.7165589535748 405.4069783486397L298.7165589535748 405.4069783486397ZM414.84747240297963 475.4829548085473Q400.55758395890336 475.4829548085473 390.44653814775745 468.44028995165075Q380.3354923366114 461.39762509475435 374.66629324018857 450.4391216867204L374.66629324018857 450.4391216867204Q373.20515945245074 447.48763143548996 373.20515945245074 446.4356151083187L373.20515945245074 446.4356151083187Q373.20515945245074 443.51334753284294 375.8352002703789 441.2924241754814Q378.46524108830704 439.0715008181199 381.62129006982076 439.0715008181199L381.62129006982076 439.0715008181199Q383.7253227241633 439.0715008181199 384.8650070785988 440.24040784831016Q386.0339141087891 441.4093148785004 388.1379467631316 444.3315824539762L388.1379467631316 444.3315824539762Q393.3980283989879 452.3385956107796 399.2717862256941 457.07266908305024Q405.174766728155 461.8067425553209 414.84747240297963 461.8067425553209L414.84747240297963 461.8067425553209Q423.90650188695435 461.8067425553209 429.89715041667955 457.3941185163526Q435.8877989464047 452.9814944773843 435.8877989464047 446.23105637803536L435.8877989464047 446.23105637803536Q435.8877989464047 441.4093148785004 432.6440819376267 438.0194844909486Q429.3711422530939 434.65887677915157 424.63706878082326 432.55484412480905Q419.9029953085526 430.45081147046653 411.07774723061596 427.2947624889528L411.07774723061596 427.2947624889528Q399.9146850922987 423.29125591055106 393.0765789656856 420.047538901773Q386.2384728390724 416.7745992172402 381.3875086637827 410.78395068751496Q376.5657671642478 404.7933021577898 376.5657671642478 395.52971394353176L376.5657671642478 395.52971394353176Q376.5657671642478 387.318142056445 381.09528190623513 380.27547719954856Q385.5955739724677 373.2328123426521 394.0117045898378 369.02474703396706Q402.42783520720786 364.8166817252821 413.3863386152418 364.8166817252821L413.3863386152418 364.8166817252821Q424.31561934752096 364.8166817252821 432.7317499648909 369.02474703396706Q441.147880582261 373.2328123426521 445.7942860272674 380.15858649652955Q450.411468796519 387.11358332616174 450.411468796519 395.52971394353176L450.411468796519 395.52971394353176Q450.411468796519 399.7377792522168 448.83344430576216 401.63725317627603Q447.2554198150052 403.5367271003352 443.2519132366035 403.5367271003352L443.2519132366035 403.5367271003352Q439.0438479279185 403.5367271003352 437.6703821674449 401.9587026095783Q436.3261390827261 400.38067811882144 436.09235767668804 397.83830532815756L436.09235767668804 397.83830532815756Q435.27412275555486 387.96104092304967 429.1665835228106 383.22696745077906Q423.05904429006637 378.4928939785084 413.3863386152418 378.4928939785084L413.3863386152418 378.4928939785084Q402.01871774664124 378.4928939785084 397.2846442743706 383.84064364162896Q392.55057080209997 389.21761598050426 392.55057080209997 395.3251552132485L392.55057080209997 395.3251552132485Q392.55057080209997 402.48471077316395 398.74577806210846 406.3713266485467Q404.97020799787174 410.25794252392933 418.0035213844934 414.875125293181L418.0035213844934 414.875125293181Q429.1665835228106 418.87863187158274 435.8877989464047 422.2392395833798Q442.6382370457536 425.6290699709316 447.3723105180243 431.5028277976378Q452.10638399029494 437.4058083000987 452.10638399029494 446.23105637803536L452.10638399029494 446.23105637803536Q452.10638399029494 459.90726863126173 441.35243931254433 467.70972305778184Q430.62771731054846 475.4829548085473 414.84747240297963 475.4829548085473L414.84747240297963 475.4829548085473ZM500.9082525007393 355.34853478074075Q495.44361213459973 355.34853478074075 491.6446642864813 351.66647763564134Q487.87493911411764 347.98442049054194 487.87493911411764 342.28599871836434L487.87493911411764 342.28599871836434Q487.87493911411764 336.6167996219414 491.6446642864813 332.934742476842Q495.44361213459973 329.25268533174267 501.3173699613059 329.25268533174267L501.3173699613059 329.25268533174267Q507.0157917334835 329.25268533174267 510.69784887858293 332.817851773823Q514.3799060236823 336.41224089165814 514.3799060236823 342.08143998808106L514.3799060236823 342.08143998808106Q514.3799060236823 347.77986176025865 510.4932901482996 351.54958693262233Q506.57745159716217 355.34853478074075 500.9082525007393 355.34853478074075L500.9082525007393 355.34853478074075ZM497.75220351922553 473.1743634239214Q493.9532556711071 473.1743634239214 491.7615549895004 471.27488949986224Q489.5406316321388 469.37541557580306 489.5406316321388 466.2193665942892L489.5406316321388 466.2193665942892L491.6446642864813 376.7979787847325Q491.6446642864813 373.2328123426521 493.8655876438429 371.33333841859286Q496.05728832544963 369.4338644945337 499.85623617356805 369.4338644945337L499.85623617356805 369.4338644945337Q503.6551840216864 369.4338644945337 505.8468847032933 371.33333841859286Q508.0678080606548 373.2328123426521 508.0678080606548 377.0025375150158L508.0678080606548 377.0025375150158L505.96377540631227 466.2193665942892Q505.7592166760289 469.5799743060863 503.53829331866746 471.39178020288125Q501.3173699613059 473.1743634239214 497.75220351922553 473.1743634239214L497.75220351922553 473.1743634239214Z " fill="#1d3b34" transform="matrix(0.5896139070373566,0,0,0.5896139070373565,0,63.62848136495765)"/><path d="M678.2378355337542 430.4142095209579Q683.1986880319737 430.4142095209579 683.1986880319737 435.5168006619837L683.1986880319737 435.5168006619837Q683.1986880319737 440.76113044581587 678.0960968909478 440.76113044581587L678.0960968909478 440.76113044581587L633.9343854680217 440.17392749704703Q629.3987488982209 440.03218885424076 629.3987488982209 434.9295977132149L629.3987488982209 434.9295977132149Q629.3987488982209 432.31755701007074 630.7958869487398 431.062157602358Q632.172776621715 429.8270065721891 634.2178627536341 429.8270065721891L634.2178627536341 429.8270065721891L650.8417807170557 430.13073223534536Q653.4538214201999 388.1355972096008 653.4538214201999 348.48927397893164L653.4538214201999 348.48927397893164Q646.8933470960238 348.63101262173785 636.4046875283595 349.359954213313L636.4046875283595 349.359954213313L632.4765022848715 349.64343149892557Q631.0186191017211 349.64343149892557 629.8442132041835 348.1855483157753Q628.6698073066457 346.7276651326251 628.6698073066457 344.3991017150934L628.6698073066457 344.3991017150934Q628.6698073066457 340.167190808449 633.3471825192528 339.29651057406755L633.3471825192528 339.29651057406755Q635.959223222397 338.851046268105 644.5647836784922 338.4258303396862Q653.1703441345874 337.98036603372356 661.33044028472 337.98036603372356L661.33044028472 337.98036603372356Q673.5807086986908 337.98036603372356 678.6832998397167 338.851046268105L678.6832998397167 338.851046268105Q680.870124614442 339.29651057406755 682.0445305119797 340.24818431862394Q683.1986880319737 341.1998580631804 683.1986880319737 343.81189876632453L683.1986880319737 343.81189876632453Q683.1986880319737 346.30244920420625 681.8217983589984 347.67933887718146Q680.4246603084795 349.05622855015673 678.0960968909478 348.9144899073504L678.0960968909478 348.9144899073504Q672.4063028011531 348.48927397893164 664.691670956983 348.32728695858157L664.691670956983 348.32728695858157Q664.691670956983 371.9571435521418 664.1044680082142 390.9703700657263Q663.5172650594454 410.00384495685444 661.9176432334889 430.27247087815164L661.9176432334889 430.27247087815164L678.2378355337542 430.4142095209579ZM723.5942012317618 442.07727498615986Q713.6724962353226 442.07727498615986 706.6665576051839 437.1974159981153Q699.680867352589 432.31755701007074 695.732433731557 424.7244154311632L695.732433731557 424.7244154311632Q694.7200148543693 422.6793292992441 694.7200148543693 421.950387707669L694.7200148543693 421.950387707669Q694.7200148543693 419.9255499532936 696.5423688333071 418.38667325996835Q698.364722812245 416.8477965666431 700.5515475869704 416.8477965666431L700.5515475869704 416.8477965666431Q702.0094307701206 416.8477965666431 702.8193658718708 417.65773166839324Q703.6090525960772 418.46766677014335 705.0669357792274 420.4925045245187L705.0669357792274 420.4925045245187Q708.7116437371029 426.04055997150715 712.8018160009411 429.3207971335952Q716.8717398872355 432.6010342956833 723.5942012317618 432.6010342956833L723.5942012317618 432.6010342956833Q729.8509498927815 432.6010342956833 734.001867289251 429.54352928657653Q738.1730330632641 426.4860242774697 738.1730330632641 421.80864906486266L738.1730330632641 421.80864906486266Q738.1730330632641 418.46766677014335 735.9052147783638 416.118854975068Q733.6373964934634 413.79029155753636 730.3571593313753 412.3324083743861Q727.0769221692873 410.8745251912359 720.9619121510738 408.6877004165105L720.9619121510738 408.6877004165105Q713.22703192936 405.9136726930163 708.4889115841218 403.66610278565963Q703.7507912388834 401.39828450075925 700.4098089441641 397.2473671042898Q697.0485782719011 393.09644970782034 697.0485782719011 386.67771402645053L697.0485782719011 386.67771402645053Q697.0485782719011 380.9879199366558 700.1870767911828 376.10806094861124Q703.3255753104645 371.22820196056665 709.1571080430656 368.3124355942662Q714.9886407756665 365.39666922796573 722.5615339770303 365.39666922796573L722.5615339770303 365.39666922796573Q730.1546755559378 365.39666922796573 735.9862082885388 368.3124355942662Q741.8177410211398 371.22820196056665 745.0169846730529 376.02706743843623Q748.2162283249659 380.84618129384955 748.2162283249659 386.67771402645053L748.2162283249659 386.67771402645053Q748.2162283249659 389.593480392751 747.1228159376031 390.909624933095Q746.0294035502405 392.22576947343896 743.27562420429 392.22576947343896L743.27562420429 392.22576947343896Q740.3598578379896 392.22576947343896 739.4081840934331 391.1323570860763Q738.4565103488767 390.0389446987136 738.3147717060705 388.2773358524071L738.3147717060705 388.2773358524071Q737.7275687573016 381.4333842426184 733.4956578506572 378.15314708053035Q729.2637469440127 374.8729099184423 722.5615339770303 374.8729099184423L722.5615339770303 374.8729099184423Q714.6849151125102 374.8729099184423 711.4046779504222 378.57836300894917Q708.1244407883341 382.3040644769998 708.1244407883341 386.53597538364426L708.1244407883341 386.53597538364426Q708.1244407883341 391.49682788186385 712.4373452051536 394.18986209518306Q716.7300012444293 396.88289630850227 725.7810260064871 400.0821399604153L725.7810260064871 400.0821399604153Q733.4956578506572 402.8561676839095 738.1730330632641 405.1847311014412Q742.8301598983275 407.53354289651656 746.1103970604155 411.603466782811Q749.3906342225035 415.69363904664914 749.3906342225035 421.80864906486266L749.3906342225035 421.80864906486266Q749.3906342225035 431.2848897553393 741.9594796639461 436.69120655952145Q734.5283251053886 442.07727498615986 723.5942012317618 442.07727498615986L723.5942012317618 442.07727498615986ZM836.8636252115183 431.8720927041081Q838.9087113434374 432.1555699897207 839.9211302206251 433.04649860164585Q840.9537974753565 433.91717883602723 840.9537974753565 436.24574225355883L840.9537974753565 436.24574225355883Q840.9537974753565 438.43256702828427 839.8603850879938 439.7487115686282Q838.7669727006311 441.0648561089722 836.8636252115183 441.0648561089722L836.8636252115183 441.0648561089722Q830.890353836111 441.0648561089722 828.0353326024418 439.1615086198594Q825.2005597463163 437.25816113074654 823.1554736143972 432.0138313469144L823.1554736143972 432.0138313469144Q816.5949992902212 442.6644779349287 799.8293426839933 442.6644779349287L799.8293426839933 442.6644779349287Q788.024538575985 442.6644779349287 780.7351226602339 437.42014815109656Q773.4457067444827 432.1555699897207 770.3072082252008 424.07646734976305Q767.168709705919 415.9771163322617 767.168709705919 406.94633994774773L767.168709705919 406.94633994774773Q767.168709705919 397.1663735941148 771.117143326951 388.58106151556336Q775.0453285704391 379.9755010594682 782.6992152819779 374.73117127563603Q790.3531019935167 369.46659311426015 801.003748581531 369.46659311426015L801.003748581531 369.46659311426015Q808.2931644972822 369.46659311426015 813.6792329239207 372.38235948056064Q819.0855497281028 375.2981258468611 822.1430547372096 380.562704008237L822.1430547372096 380.562704008237L822.7302576859785 375.7435901528237Q823.0137349715909 370.35752172618527 827.6708618066542 370.35752172618527L827.6708618066542 370.35752172618527Q830.5866281729548 370.35752172618527 832.12550486628 371.73441139916054Q833.6643815596052 373.11130107213575 833.360655896449 375.0146485612486L833.360655896449 375.0146485612486L832.9354399680302 378.6593565191242Q831.9027727132988 384.7743665373377 831.4775567848799 391.3348408615138L831.4775567848799 391.3348408615138Q831.0320924789173 396.88289630850227 831.0320924789173 406.21739835617257L831.0320924789173 406.21739835617257L831.0320924789173 416.28084199541803Q831.0320924789173 422.5375906564378 831.3965632747048 425.5343505329133Q831.7610340704924 428.5108620318451 832.9354399680302 430.13073223534536Q834.0895974880241 431.73035406130185 836.8636252115183 431.8720927041081L836.8636252115183 431.8720927041081ZM819.9562299624841 416.118854975068Q820.0979686052905 409.27490336527933 820.0979686052905 398.48251813445876L820.0979686052905 398.48251813445876Q820.0979686052905 391.3348408615138 817.0404635961837 386.9004461794318Q813.982958587077 382.44580311980604 809.6093090376262 380.562704008237Q805.2356594881754 378.6593565191242 801.2872258671435 378.6593565191242L801.2872258671435 378.6593565191242Q793.5725940229735 378.6593565191242 788.3890093717727 383.03300606857493Q783.2054247205717 387.40665561802564 780.8161161704088 393.9671299422018Q778.4065592427022 400.52760426637786 778.4065592427022 406.94633994774773L778.4065592427022 406.94633994774773Q778.4065592427022 417.1515222297994 783.4281568735531 425.23062486975704Q788.4700028819476 433.3299758872584 799.9710813267995 433.3299758872584L799.9710813267995 433.3299758872584Q808.5766417828947 433.3299758872584 814.1854423625144 428.87533282763263Q819.8144913196779 424.44093814555066 819.9562299624841 416.118854975068L819.9562299624841 416.118854975068ZM935.1290014313536 374.42744561247974L935.2707400741598 375.2981258468611Q935.2707400741598 376.3307931015925 934.0963341766221 378.2138922131616L934.0963341766221 378.2138922131616Q929.1557300559463 386.9611913120631 928.1230628012148 388.8645388011759L928.1230628012148 388.8645388011759Q926.968905281221 413.06134996596126 926.968905281221 439.60697292582194L926.968905281221 439.60697292582194L926.8069182608709 453.45686316574927Q926.5234409752584 464.22900001902605 926.5234409752584 471.51841593477735L926.5234409752584 471.51841593477735Q926.5234409752584 473.5635020666964 924.923819149302 474.7379079642341Q923.3241973233454 475.89206548422806 920.97538552827 475.89206548422806L920.97538552827 475.89206548422806Q918.3633448251258 475.89206548422806 916.8244681318005 474.7379079642341Q915.3058398160191 473.5635020666964 915.3058398160191 471.8221415979336L915.3058398160191 471.8221415979336Q915.4475784588252 468.31917228286426 915.4475784588252 461.90043660149445L915.4475784588252 461.90043660149445L916.1765200504004 432.7427729384895Q912.6735507353311 436.69120655952145 906.2548150539611 439.1615086198594Q899.8360793725914 441.6318106801973 892.404924814034 441.6318106801973L892.404924814034 441.6318106801973Q881.9162652463697 441.6318106801973 873.5334369432557 437.25816113074654Q865.1506086401417 432.88451158129584 860.2707496520973 424.44093814555066Q855.3706422865089 415.9771163322617 855.3706422865089 404.0305735814472L855.3706422865089 404.0305735814472Q855.3706422865089 391.3348408615138 860.8377042233222 382.95201255839993Q866.3047661601357 374.569184255286 874.7685879734247 370.6409990117978Q883.2324097867137 366.7128137683097 892.1214475284213 366.7128137683097L892.1214475284213 366.7128137683097Q901.4559495760917 366.7128137683097 909.2515749304367 371.00546980758537Q917.0472002847818 375.2981258468611 920.8336468854637 381.71686152823094L920.8336468854637 381.71686152823094Q922.4332687114202 378.6593565191242 925.5110220980707 373.5567653780983L925.5110220980707 373.5567653780983Q926.5234409752584 371.9571435521418 927.2523825668335 371.2889470931979Q927.9813241584086 370.6409990117978 929.1557300559463 370.6409990117978L929.1557300559463 370.6409990117978Q931.1805678103216 370.49926036899154 933.0029217892594 371.65341788898553Q934.8252757681972 372.8278237865232 935.1290014313536 374.42744561247974L935.1290014313536 374.42744561247974ZM916.459997336013 419.9255499532936L917.0472002847818 394.10886858500805Q916.1765200504004 390.6058992699387 912.8962828883124 386.394236740838Q909.6160457262243 382.1623258341935 904.1489837894109 379.10482082508673Q898.6819218525974 376.02706743843623 891.6759832224587 376.02706743843623L891.6759832224587 376.02706743843623Q885.4192345614389 376.02706743843623 879.6484469614693 379.165565957718Q873.8979077390433 382.3040644769998 870.2531997811676 388.64180664819463Q866.6084918232921 394.97954881938944 866.6084918232921 404.17231222425346L866.6084918232921 404.17231222425346Q866.6084918232921 417.73872517856825 873.9586528716745 424.8661540739694Q881.3290622976008 432.0138313469144 892.5466634568402 432.0138313469144L892.5466634568402 432.0138313469144Q897.3657773122535 432.0138313469144 902.6101070960857 430.13073223534536Q907.8544368799177 428.22738474623253 911.6611318581434 425.39261189010705Q915.4475784588252 422.5375906564378 916.459997336013 419.9255499532936L916.459997336013 419.9255499532936ZM1009.9062597004349 425.31161837993204Q1009.9062597004349 428.08564610342626 1010.5744561593788 429.9687452149953Q1011.2224042407789 431.8720927041081 1012.2550714955104 433.5527080402397Q1013.267490372698 435.2333233763712 1013.267490372698 435.80027794759627L1013.267490372698 435.80027794759627Q1013.267490372698 437.42014815109656 1011.6678685467415 438.8780313342468Q1010.0682467207849 440.33591451739704 1008.6103635376347 440.33591451739704L1008.6103635376347 440.33591451739704Q1005.6945971713342 440.33591451739704 1003.4267788864338 436.69120655952145Q1001.1589606015334 433.04649860164585 1001.1589606015334 429.68526792938275L1001.1589606015334 429.68526792938275L1001.1589606015334 427.6401817974637Q998.1014555924268 434.34239476444606 991.7637134212318 437.8453640795154Q985.425971250037 441.34833339458476 977.2658750999045 441.34833339458476L977.2658750999045 441.34833339458476Q964.8738680431273 441.34833339458476 958.73860964737 432.88451158129584Q952.6235996291565 424.44093814555066 952.6235996291565 408.2624844880917L952.6235996291565 408.2624844880917L952.6235996291565 372.24062083775436Q952.6235996291565 370.35752172618527 954.1422279449381 369.1831158286476Q955.6811046382633 368.0087099311099 958.0096680557949 368.0087099311099L958.0096680557949 368.0087099311099Q960.5002184936767 368.0087099311099 962.099840319633 369.1831158286476Q963.6994621455896 370.35752172618527 963.6994621455896 372.24062083775436L963.6994621455896 372.24062083775436L963.6994621455896 408.5459617737042Q963.6994621455896 420.796230187675 967.202431460659 426.4860242774697Q970.7054007757283 432.1555699897207 978.4200326198983 432.1555699897207L978.4200326198983 432.1555699897207Q998.1014555924268 432.1555699897207 998.1014555924268 396.43743200253965L998.1014555924268 396.43743200253965L998.1014555924268 372.0988821949481Q998.1014555924268 369.77031877741643 999.559338775577 368.45417423707244Q1001.0172219587272 367.1380296967285 1003.5077723966089 367.1380296967285L1003.5077723966089 367.1380296967285Q1006.1198130997531 367.1380296967285 1007.7194349257096 368.45417423707244Q1009.3393051292098 369.77031877741643 1009.3393051292098 372.0988821949481L1009.3393051292098 372.0988821949481L1009.9062597004349 425.31161837993204ZM1069.3959929239822 441.9355363433536Q1057.4494501731679 441.9355363433536 1048.7628962068977 436.7519516921527Q1040.0965906181714 431.5886154184956 1035.6419475585453 423.04380009503166Q1031.2075528764635 414.51923314911147 1031.2075528764635 404.455789509866L1031.2075528764635 404.455789509866Q1031.2075528764635 394.10886858500805 1035.8646797115268 385.4425629962816Q1040.5218065465901 376.75600903001134 1049.1273670026853 371.65341788898553Q1057.7329274587805 366.55082674795966 1068.95052861802 366.55082674795966L1068.95052861802 366.55082674795966Q1078.872233614459 366.55082674795966 1086.7488524789792 370.5600055016228Q1094.6254713434992 374.569184255286 1098.99912089295 381.71686152823094Q1103.3727704424005 388.8645388011759 1103.3727704424005 398.05730220604L1103.3727704424005 398.05730220604Q1103.3727704424005 402.4309517554907 1102.3401031876692 404.25330573442847Q1101.3276843104813 406.0756597133663 1097.2375120466434 406.21739835617257L1097.2375120466434 406.21739835617257L1041.696212444128 407.3715558761665Q1041.696212444128 412.9196113231549 1045.057443116391 418.75114405575596Q1048.39842541111 424.58267678835693 1054.5944289394988 428.5108620318451Q1060.7904324678873 432.45929565287696 1068.95052861802 432.45929565287696L1068.95052861802 432.45929565287696Q1075.085787013777 432.45929565287696 1079.4594365632279 430.6369416739392Q1083.8330861126788 428.81458769500136 1086.3033881730166 426.4860242774697Q1088.7939386108983 424.1372124823943 1092.2766595484236 419.9255499532936L1092.2766595484236 419.9255499532936Q1093.3093268031553 418.6094054129496 1095.4961515778805 418.6094054129496L1095.4961515778805 418.6094054129496Q1097.3792506894497 418.6094054129496 1099.0598660255812 420.0672885960999Q1100.7404813617127 421.5251717792501 1100.7404813617127 423.4082708908192L1100.7404813617127 423.4082708908192Q1100.7404813617127 424.8661540739694 1099.566075464175 426.4860242774697L1099.566075464175 426.4860242774697Q1094.9089486291118 432.88451158129584 1088.2674807947606 437.42014815109656Q1081.646261337953 441.9355363433536 1069.3959929239822 441.9355363433536L1069.3959929239822 441.9355363433536ZM1041.696212444128 398.62425677726503L1092.438646568774 397.3283606144648Q1093.896529751924 397.3283606144648 1093.896529751924 395.2832744825457L1093.896529751924 395.2832744825457Q1093.896529751924 386.53597538364426 1086.8905911217853 381.06891344683083Q1079.8846524916466 375.6018515100174 1069.2542542811761 375.6018515100174L1069.2542542811761 375.6018515100174Q1061.2358967738496 375.6018515100174 1054.9588997352862 379.67177539631183Q1048.7021510742666 383.76194766015004 1045.199181759197 389.31000310713847Q1041.696212444128 394.83781017658316 1041.696212444128 398.62425677726503L1041.696212444128 398.62425677726503ZM1263.7399205889278 394.5543328909706L1263.881659231734 407.67528153932284Q1264.1651365173466 426.3240372571197 1264.1651365173466 436.69120655952145L1264.1651365173466 436.69120655952145Q1264.1651365173466 439.1615086198594 1262.7882468443713 440.70038531318465Q1261.3911087938523 442.21901362896614 1258.6373294479017 442.21901362896614L1258.6373294479017 442.21901362896614Q1256.005040367214 442.21901362896614 1254.4661636738888 440.70038531318465Q1252.9475353581074 439.1615086198594 1252.9475353581074 436.8329452023277L1252.9475353581074 436.8329452023277Q1252.8057967153009 422.8413163195941 1252.8057967153009 394.83781017658316L1252.8057967153009 394.83781017658316Q1252.8057967153009 350.67609875365696 1246.5287996767374 350.67609875365696L1246.5287996767374 350.67609875365696Q1243.8965105960492 350.67609875365696 1239.6848480669487 357.29731821046437Q1235.4529371603044 363.93878604481546 1232.5371707940035 370.6409990117978L1232.5371707940035 370.6409990117978Q1229.7631430705096 377.0597346931677 1227.8597955813966 384.0454249457626Q1225.9766964698276 391.05136357590123 1223.9316103379083 400.2441269807653L1223.9316103379083 400.2441269807653Q1223.060930103527 404.6177765302161 1217.6546132993449 404.6177765302161L1217.6546132993449 404.6177765302161Q1215.184311239007 404.6177765302161 1213.6454345456818 403.66610278565963Q1212.1268062299002 402.71442904110324 1211.397864638325 400.52760426637786L1211.397864638325 400.52760426637786L1209.352778506406 393.2381883506266Q1205.566331905724 378.07215357035534 1202.9340428250362 371.369940603373L1202.9340428250362 371.369940603373Q1200.0182764587357 363.7970474020092 1195.9483525724413 357.07458605748303Q1191.858180308603 350.3723730905007 1189.5296168910713 350.3723730905007L1189.5296168910713 350.3723730905007Q1186.3101248616147 350.3723730905007 1184.791496545833 362.7036350146465Q1183.252619852508 375.0146485612486 1182.8274039240891 393.68365265658923L1182.8274039240891 393.68365265658923Q1182.6654169037388 400.2441269807653 1182.6654169037388 413.93203020034264L1182.6654169037388 413.93203020034264L1182.6654169037388 436.8329452023277Q1182.6654169037388 439.0197699770531 1181.1467885879574 440.25492100722204Q1179.6079118946323 441.49007203739103 1176.6921455283318 441.49007203739103L1176.6921455283318 441.49007203739103Q1173.4929018764187 441.49007203739103 1172.3994894890561 439.9714437216095Q1171.3060771016935 438.43256702828427 1171.3060771016935 435.80027794759627L1171.3060771016935 435.80027794759627Q1171.3060771016935 427.4984431546574 1171.589554387306 412.9196113231549L1171.589554387306 412.9196113231549L1171.7312930301123 393.52166563623916Q1171.7312930301123 364.66772763639057 1175.679726651144 351.1013146820758Q1179.6079118946323 337.5551501053048 1188.2134723507274 337.5551501053048L1188.2134723507274 337.5551501053048Q1197.9731903268166 337.5551501053048 1205.3435997527429 352.1339819368072Q1212.7140091786691 366.7128137683097 1217.5128746565388 387.26491697521936L1217.5128746565388 387.26491697521936Q1220.1451637372265 375.2981258468611 1224.9440292150962 363.7970474020092Q1229.7631430705096 352.2757205796135 1235.8781530887231 344.90531115368725Q1242.0134114844805 337.5551501053048 1248.43214716585 337.5551501053048L1248.43214716585 337.5551501053048Q1254.2636798984508 337.5551501053048 1257.5439170605391 344.1156244294809Q1260.8241542226274 350.67609875365696 1262.1200503854275 362.98711230025907Q1263.4361949257714 375.2981258468611 1263.7399205889278 394.5543328909706L1263.7399205889278 394.5543328909706ZM1322.4804638433561 441.9355363433536Q1310.5339210925417 441.9355363433536 1301.8473671262718 436.7519516921527Q1293.1810615375452 431.5886154184956 1288.7264184779197 423.04380009503166Q1284.2920237958374 414.51923314911147 1284.2920237958374 404.455789509866L1284.2920237958374 404.455789509866Q1284.2920237958374 394.10886858500805 1288.9491506309005 385.4425629962816Q1293.6265258435078 376.75600903001134 1302.2118379220592 371.65341788898553Q1310.8173983781544 366.55082674795966 1322.0552479149374 366.55082674795966L1322.0552479149374 366.55082674795966Q1331.956704533833 366.55082674795966 1339.833323398353 370.5600055016228Q1347.709942262873 374.569184255286 1352.083591812324 381.71686152823094Q1356.4572413617748 388.8645388011759 1356.4572413617748 398.05730220604L1356.4572413617748 398.05730220604Q1356.4572413617748 402.4309517554907 1355.424574107043 404.25330573442847Q1354.4121552298557 406.0756597133663 1350.321982966017 406.21739835617257L1350.321982966017 406.21739835617257L1294.7806833635018 407.3715558761665Q1294.7806833635018 412.9196113231549 1298.1419140357648 418.75114405575596Q1301.482896330484 424.58267678835693 1307.6788998588727 428.5108620318451Q1313.8749033872614 432.45929565287696 1322.0552479149374 432.45929565287696L1322.0552479149374 432.45929565287696Q1328.1702579331509 432.45929565287696 1332.5439074826018 430.6369416739392Q1336.9175570320526 428.81458769500136 1339.3878590923905 426.4860242774697Q1341.8784095302722 424.1372124823943 1345.3813788453413 419.9255499532936L1345.3813788453413 419.9255499532936Q1346.3937977225291 418.6094054129496 1348.5806224972544 418.6094054129496L1348.5806224972544 418.6094054129496Q1350.4839699863674 418.6094054129496 1352.1443369449553 420.0672885960999Q1353.8249522810866 421.5251717792501 1353.8249522810866 423.4082708908192L1353.8249522810866 423.4082708908192Q1353.8249522810866 424.8661540739694 1352.6707947610926 426.4860242774697L1352.6707947610926 426.4860242774697Q1347.9934195484857 432.88451158129584 1341.3722000916782 437.42014815109656Q1334.7307322573274 441.9355363433536 1322.4804638433561 441.9355363433536L1322.4804638433561 441.9355363433536ZM1294.7806833635018 398.62425677726503L1345.5231174881478 397.3283606144648Q1346.9810006712978 397.3283606144648 1346.9810006712978 395.2832744825457L1346.9810006712978 395.2832744825457Q1346.9810006712978 386.53597538364426 1339.9750620411592 381.06891344683083Q1332.9893717885643 375.6018515100174 1322.33872520055 375.6018515100174L1322.33872520055 375.6018515100174Q1314.320367693224 375.6018515100174 1308.04337065466 379.67177539631183Q1301.7866219936404 383.76194766015004 1298.283652678571 389.31000310713847Q1294.7806833635018 394.83781017658316 1294.7806833635018 398.62425677726503L1294.7806833635018 398.62425677726503ZM1383.5698188928604 440.03218885424076Q1381.0995168325226 440.03218885424076 1379.5606401391974 438.7160443138968Q1378.0217634458718 437.42014815109656 1378.0217634458718 434.9295977132149L1378.0217634458718 434.9295977132149L1377.1510832114905 331.1364144239349Q1377.1510832114905 328.64586398605326 1378.750705037447 327.268974313078Q1380.3705752409473 325.8920846401028 1382.9826159440913 325.8920846401028L1382.9826159440913 325.8920846401028Q1385.473166381973 325.8920846401028 1386.9310495651234 327.268974313078Q1388.3889327482739 328.64586398605326 1388.3889327482739 330.99467578112865L1388.3889327482739 330.99467578112865L1389.1178743398486 434.9295977132149Q1389.1178743398486 437.42014815109656 1387.5789976465235 438.7160443138968Q1386.0401209531983 440.03218885424076 1383.5698188928604 440.03218885424076L1383.5698188928604 440.03218885424076ZM1446.1170571255147 441.49007203739103Q1429.6348778048991 441.49007203739103 1418.7817474414474 432.7427729384895Q1407.9083687004522 423.99547383958804 1407.9083687004522 405.3467181217912L1407.9083687004522 405.3467181217912Q1407.9083687004522 393.68365265658923 1412.3630117600778 384.8553600475127Q1416.8176548197034 376.02706743843623 1425.2612282554487 371.08646331776043Q1433.7250500687378 366.12561081954084 1445.2463768911334 366.12561081954084L1445.2463768911334 366.12561081954084Q1456.3222394075665 366.12561081954084 1465.1302836390992 370.7219925219728Q1473.9585762481756 375.2981258468611 1478.9801738790266 384.1264184559376Q1484.0220198874213 392.9547110650141 1484.0220198874213 405.1847311014412L1484.0220198874213 405.1847311014412Q1484.0220198874213 422.9830549624004 1473.5941054523882 432.2365634998957Q1463.1661910173552 441.49007203739103 1446.1170571255147 441.49007203739103L1446.1170571255147 441.49007203739103ZM1445.8133314623583 432.31755701007074Q1457.4763969275605 432.31755701007074 1465.1302836390992 425.39261189010705Q1472.7841703506379 418.46766677014335 1472.7841703506379 405.04299245863484L1472.7841703506379 405.04299245863484Q1472.7841703506379 396.29569335973343 1469.3621945457435 389.512486882576Q1465.940218740849 382.7495287829624 1459.7442152124609 379.0238273149117Q1453.5482116840722 375.2981258468611 1445.5298541767456 375.2981258468611L1445.5298541767456 375.2981258468611Q1433.5833114259312 375.2981258468611 1426.3546406428113 383.4784703745375Q1419.1462182372352 391.6385665246701 1419.1462182372352 405.04299245863484L1419.1462182372352 405.04299245863484Q1419.1462182372352 419.1966083617185 1426.8608500814053 425.7570826858946Q1434.5957303031191 432.31755701007074 1445.8133314623583 432.31755701007074L1445.8133314623583 432.31755701007074Z " fill="#a152a4" transform="matrix(0.5896139070373566,0,0,0.5896139070373565,0,63.62848136495765)"/></g></svg>